<svg xmlns="http://www.w3.org/2000/svg" viewBox="0 0 64 64">
  <defs>
    <linearGradient id="background" x1="10" y1="8" x2="54" y2="58" gradientUnits="userSpaceOnUse">
      <stop stop-color="#8175f5"/>
      <stop offset="1" stop-color="#4f43c9"/>
    </linearGradient>
  </defs>
  <rect width="64" height="64" rx="18" fill="url(#background)"/>
  <path d="M15 17.5A7.5 7.5 0 0 1 22.5 10h19A7.5 7.5 0 0 1 49 17.5v18a7.5 7.5 0 0 1-7.5 7.5H31l-10.8 9.2c-1.3 1.1-3.2.2-3.2-1.5V42a7.5 7.5 0 0 1-2-5.1V17.5Z" fill="#fff"/>
  <path d="M36.8 17v13.2c0 4.8-2.8 7.5-7.4 7.5-3.4 0-5.9-1.6-7.1-4.4l4.2-2.1c.6 1.3 1.4 2 2.7 2 1.7 0 2.5-1 2.5-3.1V17h5.1Z" fill="#6558e8"/>
</svg>
